{"title":"Particle.Fever.720p.WEBRiP-SiTRiNA","uid":10401867,"size":1733654211,"categoryP":"video","categoryS":"hd___movies","magnet":"?xt=urn:btih:7e7a7ecc6e24b36ab13c628b2c1ae63ef0edad05&amp;dn=Particle.Fever.720p.WEBRiP-SiTRiNA&amp;tr=udp%3A%2F%2Ftracker.openbittorrent.com%3A80&amp;tr=udp%3A%2F%2Fopen.demonii.com%3A1337&amp;tr=udp%3A%2F%2Ftracker.coppersurfer.tk%3A6969&amp;tr=udp%3A%2F%2Fexodus.desync.com%3A6969","seeders":22,"leechers":0,"uploader":"Sitrina","files":-1,"time":1403378623,"description":"Ripped from NRK\n\n\nGeneral\nUnique ID                                : 106799218432217521080564818238319871626 (0x5058C80211C24B057804198DD597C68A)\nComplete name                            : Particle.Fever.720p.WEBRiP-SiTRiNA/Particle.Fever.720p.WEBRiP-SiTRiNA.mkv\nFormat                                   : Matroska\nFormat version                           : Version 4 / Version 2\nFile size                                : 1.61 GiB\nDuration                                 : 1h 35mn\nOverall bit rate                         : 2 432 Kbps\nEncoded date                             : UTC 2014-06-21 17:08:11\nWriting application                      : mkvmerge v6.9.1 ('Blue Panther') 64bit built on Apr 21 2014 16:21:33\nWriting library                          : Lavf55.33.100\n\nVideo\nID                                       : 1\nFormat                                   : AVC\nFormat/Info                              : Advanced Video Codec\nFormat profile                           : &lt;a class=&quot;__cf_email__&quot; href=&quot;/cdn-cgi/l/email-protection&quot; data-cfemail=&quot;3e765759567e720d100f&quot;&gt;[email&amp;#160;protected]&lt;/a&gt;&lt;script cf-hash='f9e31' type=&quot;text/javascript&quot;&gt;\n/* &lt;![CDATA[ */!function(){try{var t=&quot;currentScript&quot;in document?document.currentScript:function(){for(var t=document.getElementsByTagName(&quot;script&quot;),e=t.length;e--;)if(t[e].getAttribute(&quot;cf-hash&quot;))return t[e]}();if(t&amp;&amp;t.previousSibling){var e,r,n,i,c=t.previousSibling,a=c.getAttribute(&quot;data-cfemail&quot;);if(a){for(e=&quot;&quot;,r=parseInt(a.substr(0,2),16),n=2;a.length-n;n+=2)i=parseInt(a.substr(n,2),16)^r,e+=String.fromCharCode(i);e=document.createTextNode(e),c.parentNode.replaceChild(e,c)}}}catch(u){}}();/* ]]&gt; */&lt;/script&gt;\nFormat settings, CABAC                   : Yes\nFormat settings, ReFrames                : 5 frames\nCodec ID                                 : V_MPEG4/ISO/AVC\nDuration                                 : 1h 35mn\nBit rate                                 : 2 250 Kbps\nWidth                                    : 1 280 pixels\nHeight                                   : 720 pixels\nDisplay aspect ratio                     : 16:9\nFrame rate mode                          : Constant\nFrame rate                               : 25.000 fps\nColor space                              : YUV\nChroma subsampling                       : 4:2:0\nBit depth                                : 8 bits\nScan type                                : Progressive\nBits/(Pixel*Frame)                       : 0.098\nStream size                              : 1.46 GiB (90%)\nWriting library                          : x264 core 129\nEncoding settings                        : cabac=1 / ref=5 / deblock=1:0:0 / analyse=0x3:0x113 / me=hex / subme=7 / psy=0 / mixed_ref=1 / me_range=16 / chroma_me=1 / trellis=1 / 8x8dct=1 / cqm=0 / deadzone=21,11 / fast_pskip=1 / chroma_qp_offset=0 / threads=7 / lookahead_threads=1 / sliced_threads=0 / nr=0 / decimate=1 / interlaced=0 / bluray_compat=0 / constrained_intra=0 / bframes=3 / b_pyramid=2 / b_adapt=1 / b_bias=0 / direct=1 / weightb=1 / open_gop=0 / weightp=2 / keyint=125 / keyint_min=12 / scenecut=0 / intra_refresh=0 / rc_lookahead=60 / rc=abr / mbtree=1 / bitrate=2250 / ratetol=1.0 / qcomp=0.60 / qpmin=0 / qpmax=69 / qpstep=4 / vbv_maxrate=2812 / vbv_bufsize=4500 / nal_hrd=none / ip_ratio=1.00 / aq=2:1.00\nDefault                                  : Yes\nForced                                   : No\nVARIANT_BITRATE                          : 2405000\n\nAudio\nID                                       : 2\nFormat                                   : AC-3\nFormat/Info                              : Audio Coding 3\nMode extension                           : CM (complete main)\nFormat settings, Endianness              : Big\nCodec ID                                 : A_AC3\nDuration                                 : 1h 35mn\nBit rate mode                            : Constant\nBit rate                                 : 192 Kbps\nChannel(s)                               : 2 channels\nChannel positions                        : Front: L R\nSampling rate                            : 48.0 KHz\nBit depth                                : 16 bits\nCompression mode                         : Lossy\nStream size                              : 131 MiB (8%)\nDefault                                  : Yes\nForced                                   : No\nVARIANT_BITRATE                          : 211000\n\nText\nID                                       : 3\nFormat                                   : UTF-8\nCodec ID                                 : S_TEXT/UTF8\nCodec ID/Info                            : UTF-8 Plain Text\nLanguage                                 : Norwegian\nDefault                                  : Yes\nForced                                   : No\n\n","torrent":{"xt":"urn:btih:7e7a7ecc6e24b36ab13c628b2c1ae63ef0edad05","amp;dn":"Particle.Fever.720p.WEBRiP-SiTRiNA","amp;tr":["udp%3A%2F%2Ftracker.openbittorrent.com%3A80","udp%3A%2F%2Fopen.demonii.com%3A1337","udp%3A%2F%2Ftracker.coppersurfer.tk%3A6969","udp%3A%2F%2Fexodus.desync.com%3A6969"],"infoHash":"7e7a7ecc6e24b36ab13c628b2c1ae63ef0edad05","infoHashBuffer":{"type":"Buffer","data":[126,122,126,204,110,36,179,106,177,60,98,139,44,26,230,62,240,237,173,5]},"announce":[],"urlList":[]}}